<svg width="40" height="28" viewBox="0 0 40 28" fill="none" xmlns="http://www.w3.org/2000/svg">
<path id="Subtract" fill-rule="evenodd" clip-rule="evenodd" d="M14.0334 23.4963C14.604 22.4211 15.0209 21.1593 15.2843 19.7109C15.4159 19.0307 15.4818 18.3175 15.4818 17.5714C15.4818 16.8253 15.383 16.1011 15.1855 15.3989C15.01 14.6966 14.7247 14.0493 14.3297 13.4568C13.9347 12.8643 13.3971 12.3815 12.7168 12.0085C13.1776 11.6354 13.5726 11.1197 13.9018 10.4614C14.2309 9.7811 14.4723 9.04597 14.6259 8.25597C14.8015 7.46597 14.8673 6.65403 14.8234 5.82014C14.8015 4.96431 14.6589 4.17431 14.3955 3.45015C14.1322 2.70404 13.7482 2.06765 13.2434 1.54098C12.7387 1.01432 12.1023 0.663207 11.3343 0.487652C9.20567 0.0487646 7.16484 -0.0938734 5.21179 0.059738C3.28069 0.191404 1.68972 0.542514 0.438888 1.11307C0.373055 1.46418 0.318194 2.11154 0.274305 3.05515C0.25236 3.99876 0.230416 5.01917 0.208472 6.11639C0.208472 7.21361 0.197499 8.27791 0.175555 9.3093V11.5476C0.175555 13.8477 0.139098 16.1751 0.0661835 18.5298C1.17845 20.179 2.25174 22.5735 1.85394 24.3267C1.74395 24.7559 0.878502 23.3955 5.46857e-05 21.705C-0.0020474 23.4474 0.0564528 25.1747 0.175555 26.8868C0.460832 26.9965 0.921664 27.0733 1.55805 27.1172C2.19444 27.183 2.89666 27.2159 3.66471 27.2159C4.45471 27.2379 5.26665 27.2269 6.10054 27.183C6.95637 27.1611 7.74637 27.1172 8.47054 27.0513C9.21665 26.9855 9.85303 26.8977 10.3797 26.788C10.9283 26.7002 11.2904 26.5905 11.4659 26.4588C12.629 25.5591 13.4848 24.5716 14.0334 23.4963ZM9.03012 5.03014C9.27151 5.22764 9.43609 5.52389 9.52387 5.91889C9.63359 6.31389 9.69942 6.76375 9.72137 7.26847C9.74331 7.75125 9.69942 8.22305 9.5897 8.68388C9.47998 9.14472 9.28248 9.57263 8.9972 9.96763C8.71192 10.3626 8.30595 10.6589 7.77929 10.8564C7.1429 11.1197 6.68207 11.2185 6.39679 11.1526C6.13346 11.0868 6.01276 10.6808 6.03471 9.93471C6.03471 9.67138 6.02374 9.27638 6.00179 8.74972C6.00179 8.22305 6.01276 7.68541 6.03471 7.1368C6.05665 6.56625 6.11151 6.05056 6.19929 5.58972C6.30901 5.12889 6.49554 4.83264 6.75887 4.70098C6.95637 4.6132 7.18679 4.55834 7.45012 4.53639C7.7354 4.4925 8.0097 4.51445 8.27304 4.60223C8.55831 4.66806 8.81067 4.8107 9.03012 5.03014ZM9.52387 15.9914C9.7872 16.145 9.91887 16.3973 9.91887 16.7484V18.4601C9.94081 19.1184 9.88595 19.7768 9.75428 20.4351C9.64456 21.0715 9.43609 21.653 9.12887 22.1797C8.84359 22.7063 8.4047 23.0904 7.8122 23.3318C7.57082 23.4415 7.31846 23.5293 7.05512 23.5951C6.79179 23.639 6.53943 23.5951 6.29804 23.4634C6.12249 23.3757 5.99082 23.1891 5.90304 22.9038C5.83721 22.5966 5.78235 22.2675 5.73846 21.9164C5.71651 21.5652 5.70554 21.2251 5.70554 20.8959C5.72749 20.5448 5.73846 20.2815 5.73846 20.1059C5.73846 19.8207 5.7604 19.4366 5.80429 18.9539C5.84818 18.4491 5.89207 17.9664 5.93596 17.5055C6.00179 17.0228 6.06763 16.6058 6.13346 16.2547C6.22124 15.9036 6.31999 15.728 6.42971 15.728C6.71498 15.728 7.05512 15.7171 7.45012 15.6951C7.84512 15.6512 8.21817 15.6512 8.56928 15.6951C8.94234 15.739 9.26053 15.8378 9.52387 15.9914ZM27.5344 22.6076C27.5563 22.1687 27.5563 21.7518 27.5344 21.3568C27.0539 21.4005 26.5395 21.4393 25.9913 21.4733C26.6577 22.2967 27.0985 22.9571 27.0016 23.1107C26.8815 23.3013 25.9863 22.548 24.9585 21.5264L24.8403 21.5306C25.7051 22.446 26.3109 23.2102 26.2118 23.3932C26.0886 23.6206 24.928 22.7427 23.6504 21.6071C23.3249 21.6372 23.0067 21.6744 22.6956 21.7189C22.564 21.7408 22.4323 21.653 22.3006 21.4555C22.169 21.2361 22.1031 21.0057 22.1031 20.7643C22.0905 20.5562 22.0797 20.3436 22.0708 20.1265C20.8772 18.9461 19.937 17.8548 20.1182 17.6521C20.2697 17.4825 21.0677 18.0395 22.0394 18.8668C22.038 18.722 22.0373 18.5755 22.0373 18.4272L22.0428 18.2263C21.71 17.7617 21.538 17.4276 21.6325 17.335C21.6945 17.2743 21.8489 17.3323 22.0679 17.4785C22.0865 16.9953 22.1093 16.5325 22.1361 16.0901C22.4872 16.0243 22.8822 15.9584 23.3211 15.8926C23.7599 15.8268 24.1988 15.75 24.6377 15.6622C25.0766 15.5744 25.4936 15.4757 25.8886 15.3659C26.2836 15.2343 26.6127 15.0807 26.8761 14.9051C27.0736 14.3785 27.1613 13.7201 27.1394 12.9301C27.1174 12.1401 27.0736 11.4489 27.0077 10.8564C26.6786 10.9222 26.3055 10.9661 25.8886 10.988C25.4936 11.01 25.0766 11.0319 24.6377 11.0539C24.2208 11.0539 23.8148 11.0758 23.4198 11.1197C23.0248 11.1417 22.6737 11.1855 22.3665 11.2514C22.2348 10.9003 22.147 10.4614 22.1031 9.93471C22.0593 9.3861 22.0373 8.82652 22.0373 8.25597C22.0593 7.68541 22.0922 7.12583 22.1361 6.57722C22.2019 6.02861 22.2787 5.54583 22.3665 5.12889C22.542 5.10695 22.8273 5.085 23.2223 5.06306C23.6393 5.04111 24.0672 5.03014 24.5061 5.03014C24.9669 5.03014 25.3948 5.04111 25.7898 5.06306C26.2067 5.06306 26.503 5.085 26.6786 5.12889C26.7663 4.97528 26.8212 4.67903 26.8431 4.24014C26.8651 3.77931 26.8651 3.30751 26.8431 2.82473C26.8212 2.32001 26.7773 1.84821 26.7115 1.40932C26.6676 0.948485 26.6127 0.630291 26.5469 0.454736C26.0861 0.345014 25.3948 0.290153 24.4731 0.290153C23.5515 0.268209 22.5969 0.290154 21.6094 0.355987C20.6219 0.42182 19.7002 0.520569 18.8444 0.652237C17.9886 0.783903 17.3851 0.926541 17.034 1.08015C16.9243 2.02376 16.8475 3.02223 16.8036 4.07556C16.7597 5.10695 16.7268 6.16028 16.7048 7.23555V10.4285C16.7268 11.4598 16.7268 12.4364 16.7048 13.358C16.6829 14.148 16.65 15.1355 16.6061 16.3205C16.5622 17.4836 16.5293 18.6796 16.5073 19.9084C16.4854 21.1373 16.4854 22.3113 16.5073 23.4305C16.5293 24.5497 16.5951 25.4604 16.7048 26.1626C17.5826 26.3162 18.4713 26.404 19.3711 26.4259C20.2708 26.4479 21.1595 26.4259 22.0373 26.3601C22.937 26.2943 23.8038 26.1955 24.6377 26.0638C25.4936 25.9102 26.2836 25.7456 27.0077 25.5701C27.1174 25.4165 27.2052 25.1861 27.2711 24.8788C27.3588 24.5497 27.4247 24.1986 27.4685 23.8255C27.5124 23.4305 27.5344 23.0245 27.5344 22.6076ZM39.9835 21.3568C40.0055 21.7518 40.0055 22.1687 39.9835 22.6076C39.9835 23.0245 39.9616 23.4305 39.9177 23.8255C39.8738 24.1986 39.808 24.5497 39.7202 24.8788C39.6544 25.1861 39.5666 25.4165 39.4569 25.5701C38.7327 25.7456 37.9427 25.9102 37.0869 26.0638C36.253 26.1955 35.3862 26.2943 34.4865 26.3601C33.6087 26.4259 32.7199 26.4479 31.8202 26.4259C30.9205 26.404 30.0318 26.3162 29.154 26.1626C29.0443 25.4604 28.9784 24.5497 28.9565 23.4305C28.9345 22.3113 28.9345 21.1373 28.9565 19.9084C28.9784 18.6796 29.0113 17.4836 29.0552 16.3205C29.0991 15.1355 29.132 14.148 29.154 13.358C29.1759 12.4364 29.1759 11.4598 29.154 10.4285V7.23555C29.1759 6.16028 29.2088 5.10695 29.2527 4.07556C29.2966 3.02223 29.3734 2.02376 29.4831 1.08015C29.8343 0.926541 30.4377 0.783903 31.2936 0.652237C32.1494 0.520569 33.0711 0.42182 34.0586 0.355987C35.0461 0.290154 36.0006 0.268209 36.9223 0.290153C37.844 0.290153 38.5352 0.345014 38.996 0.454736C39.0619 0.630291 39.1167 0.948485 39.1606 1.40932C39.2265 1.84821 39.2703 2.32001 39.2923 2.82473C39.3142 3.30751 39.3142 3.77931 39.2923 4.24014C39.2703 4.67903 39.2155 4.97528 39.1277 5.12889C38.9522 5.085 38.6559 5.06306 38.239 5.06306C37.844 5.04111 37.416 5.03014 36.9552 5.03014C36.5163 5.03014 36.0884 5.04111 35.6715 5.06306C35.563 5.06908 35.4628 5.07511 35.3709 5.08114C34.5623 4.30529 33.9042 3.78984 33.7582 3.93296C33.6193 4.0691 34.0564 4.72727 34.7338 5.55462C34.7137 5.66898 34.6943 5.78742 34.6756 5.90993C33.4847 4.84876 32.4213 4.05146 32.2439 4.25003C32.0452 4.47236 33.1952 5.76337 34.549 7.06868C34.5228 7.45902 34.5019 7.85478 34.4865 8.25597C34.4865 8.82652 34.5084 9.3861 34.5523 9.93471C34.5962 10.4614 34.684 10.9003 34.8156 11.2514C35.1229 11.1855 35.474 11.1417 35.869 11.1197C36.264 11.0758 36.6699 11.0539 37.0869 11.0539C37.5258 11.0319 37.9427 11.01 38.3377 10.988C38.7547 10.9661 39.1277 10.9222 39.4569 10.8564C39.5227 11.4489 39.5666 12.1401 39.5885 12.9301C39.6105 13.7201 39.5227 14.3785 39.3252 14.9051C39.0619 15.0807 38.7327 15.2343 38.3377 15.3659C37.9427 15.4757 37.5258 15.5744 37.0869 15.6622C36.648 15.75 36.2091 15.8268 35.7702 15.8926C35.3313 15.9584 34.9363 16.0243 34.5852 16.0901C34.5413 16.8143 34.5084 17.5933 34.4865 18.4272C34.4865 19.2611 34.5084 20.0401 34.5523 20.7643C34.5523 21.0057 34.6181 21.2361 34.7498 21.4555C34.8815 21.653 35.0131 21.7408 35.1448 21.7189C35.9129 21.6091 36.7248 21.5433 37.5806 21.5214C38.4584 21.4775 39.2594 21.4226 39.9835 21.3568ZM2.8632 26.0224C2.8632 26.0224 2.58202 24.8299 1.84474 24.6237C1.96561 25.4394 2.8632 26.0224 2.8632 26.0224Z" fill="#171717"/>
</svg>
