<svg width="20" height="21" viewBox="0 0 20 21" fill="none" xmlns="http://www.w3.org/2000/svg">
<path id="Vector" d="M19.5 9.75V17.25C19.5 18.2446 19.1049 19.1984 18.4017 19.9016C17.6984 20.6049 16.7446 21 15.75 21H10.5C10.3011 21 10.1103 20.921 9.96967 20.7803C9.82902 20.6397 9.75 20.4489 9.75 20.25C9.75 20.0511 9.82902 19.8603 9.96967 19.7197C10.1103 19.579 10.3011 19.5 10.5 19.5H15.75C16.3467 19.5 16.919 19.2629 17.341 18.841C17.7629 18.419 18 17.8467 18 17.25H15.75C15.1533 17.25 14.581 17.0129 14.159 16.591C13.7371 16.169 13.5 15.5967 13.5 15V11.25C13.5 10.6533 13.7371 10.081 14.159 9.65901C14.581 9.23705 15.1533 9 15.75 9H17.9672C17.8253 7.44088 17.2426 5.95432 16.2874 4.71397C15.3321 3.47363 14.0436 2.53069 12.5725 1.99531C11.1013 1.45992 9.50813 1.35419 7.97911 1.69047C6.45008 2.02674 5.0483 2.79114 3.9375 3.89437C2.55624 5.25741 1.7043 7.06695 1.53375 9H3.75C4.34674 9 4.91903 9.23705 5.34099 9.65901C5.76295 10.081 6 10.6533 6 11.25V15C6 15.5967 5.76295 16.169 5.34099 16.591C4.91903 17.0129 4.34674 17.25 3.75 17.25H2.25C1.65326 17.25 1.08097 17.0129 0.65901 16.591C0.237053 16.169 0 15.5967 0 15V9.75C0.00210275 7.81865 0.577147 5.93134 1.65235 4.32696C2.72755 2.72258 4.25456 1.47325 6.04012 0.737104C7.82567 0.000961602 9.78948 -0.188898 11.683 0.191556C13.5765 0.572011 15.3146 1.50567 16.6772 2.87437C17.5768 3.77841 18.2893 4.85108 18.7737 6.03092C19.2581 7.21077 19.5049 8.4746 19.5 9.75Z" fill="black"/>
</svg>
