<svg width="24" height="25" viewBox="0 0 24 25" fill="none" xmlns="http://www.w3.org/2000/svg">
<g id="FolderStar">
<path id="Vector" d="M22.2272 15.9563L20.1169 17.6991L20.7591 20.2969C20.7943 20.4401 20.7866 20.5906 20.7367 20.7294C20.6869 20.8683 20.5973 20.9893 20.479 21.0775C20.3607 21.1656 20.2191 21.217 20.0718 21.225C19.9245 21.2331 19.7781 21.1976 19.6509 21.1228L17.25 19.71L14.8491 21.1228C14.7219 21.1976 14.5755 21.2331 14.4282 21.225C14.2809 21.217 14.1393 21.1656 14.021 21.0775C13.9027 20.9893 13.8131 20.8683 13.7633 20.7294C13.7135 20.5906 13.7057 20.4401 13.7409 20.2969L14.3831 17.6991L12.2728 15.9563C12.1577 15.8611 12.0737 15.7337 12.0314 15.5905C11.9892 15.4473 11.9907 15.2947 12.0357 15.1523C12.0807 15.0099 12.1672 14.8842 12.2841 14.7912C12.401 14.6983 12.543 14.6424 12.6919 14.6307L15.4894 14.4141L16.5609 11.9297C16.6188 11.795 16.715 11.6802 16.8374 11.5995C16.9599 11.5188 17.1034 11.4758 17.25 11.4758C17.3967 11.4758 17.5401 11.5188 17.6626 11.5995C17.785 11.6802 17.8812 11.795 17.9391 11.9297L19.0106 14.4141L21.8081 14.6307C21.957 14.6424 22.099 14.6983 22.2159 14.7912C22.3328 14.8842 22.4193 15.0099 22.4643 15.1523C22.5093 15.2947 22.5108 15.4473 22.4686 15.5905C22.4263 15.7337 22.3423 15.8611 22.2272 15.9563ZM12.0525 19.7269C12.0525 19.9258 11.9735 20.1166 11.8328 20.2572C11.6922 20.3979 11.5014 20.4769 11.3025 20.4769H3.69188C3.30962 20.4764 2.94316 20.3243 2.67286 20.054C2.40257 19.7837 2.2505 19.4173 2.25 19.035V5.47691C2.25 5.07908 2.40804 4.69755 2.68934 4.41625C2.97064 4.13494 3.35218 3.97691 3.75 3.97691H8.68969C8.88674 3.97628 9.08196 4.01482 9.26398 4.0903C9.44601 4.16579 9.61122 4.2767 9.75 4.41659L12.3103 6.97691H20.25C20.6478 6.97691 21.0294 7.13494 21.3107 7.41625C21.592 7.69755 21.75 8.07908 21.75 8.47691V11.4769C21.75 11.6758 21.671 11.8666 21.5303 12.0072C21.3897 12.1479 21.1989 12.2269 21 12.2269C20.8011 12.2269 20.6103 12.1479 20.4697 12.0072C20.329 11.8666 20.25 11.6758 20.25 11.4769V8.47691H3.75V18.9769H11.3025C11.5014 18.9769 11.6922 19.0559 11.8328 19.1966C11.9735 19.3372 12.0525 19.528 12.0525 19.7269ZM3.75 6.97691H10.1897L8.68969 5.47691H3.75V6.97691Z" fill="black"/>
</g>
</svg>
