<svg width="24" height="25" viewBox="0 0 24 25" fill="none" xmlns="http://www.w3.org/2000/svg">
<g id="House">
<path id="Vector" d="M20.5603 10.4156L13.0603 2.91565C12.779 2.63455 12.3977 2.47665 12 2.47665C11.6024 2.47665 11.221 2.63455 10.9397 2.91565L3.4397 10.4156C3.29973 10.5546 3.18878 10.7199 3.1133 10.9021C3.03782 11.0843 2.99931 11.2797 3.00001 11.4769V20.4769C3.00001 20.6758 3.07903 20.8666 3.21968 21.0072C3.36033 21.1479 3.5511 21.2269 3.75001 21.2269H9.75001C9.94892 21.2269 10.1397 21.1479 10.2803 21.0072C10.421 20.8666 10.5 20.6758 10.5 20.4769V15.2269H13.5V20.4769C13.5 20.6758 13.579 20.8666 13.7197 21.0072C13.8603 21.1479 14.0511 21.2269 14.25 21.2269H20.25C20.4489 21.2269 20.6397 21.1479 20.7803 21.0072C20.921 20.8666 21 20.6758 21 20.4769V11.4769C21.0007 11.2797 20.9622 11.0843 20.8867 10.9021C20.8112 10.7199 20.7003 10.5546 20.5603 10.4156ZM19.5 19.7269H15V14.4769C15 14.278 14.921 14.0872 14.7803 13.9466C14.6397 13.8059 14.4489 13.7269 14.25 13.7269H9.75001C9.5511 13.7269 9.36033 13.8059 9.21968 13.9466C9.07903 14.0872 9.00001 14.278 9.00001 14.4769V19.7269H4.50001V11.4769L12 3.9769L19.5 11.4769V19.7269Z" fill="black"/>
</g>
</svg>
