<svg width="16" height="16" viewBox="0 0 16 16" fill="none" xmlns="http://www.w3.org/2000/svg">
<g id="Logos / tiktok-logo">
<path id="Vector" d="M11.6756 3.19333C11.1439 2.58637 10.8509 1.80689 10.8511 1H8.44778V10.6444C8.42924 11.1664 8.2089 11.6607 7.83315 12.0234C7.4574 12.3861 6.95557 12.5888 6.43333 12.5889C5.32889 12.5889 4.41111 11.6867 4.41111 10.5667C4.41111 9.22889 5.70222 8.22556 7.03222 8.63778V6.18C4.34889 5.82222 2 7.90667 2 10.5667C2 13.1567 4.14667 15 6.42556 15C8.86778 15 10.8511 13.0167 10.8511 10.5667V5.67444C11.8257 6.37433 12.9957 6.74984 14.1956 6.74778V4.34444C14.1956 4.34444 12.7333 4.41444 11.6756 3.19333Z" fill="currentColor"/>
</g>
</svg>
